<?xml version="1.0" encoding="UTF-8"?>
<svg xmlns="http://www.w3.org/2000/svg" xmlns:xlink="http://www.w3.org/1999/xlink" width="144.959991pt" height="204pt" viewBox="0 0 144.959991 204">
<defs>
<g>
<g id="glyph-0-0">
<path d="M 4.625 -0.015625 L 4.3125 0.359375 L 3.609375 -0.171875 C 3.441406 -0.078125 3.257812 -0.00390625 3.0625 0.046875 C 2.875 0.0976562 2.660156 0.125 2.421875 0.125 C 1.722656 0.125 1.175781 -0.101562 0.78125 -0.5625 C 0.425781 -1.007812 0.25 -1.566406 0.25 -2.234375 C 0.25 -2.847656 0.398438 -3.375 0.703125 -3.8125 C 1.085938 -4.375 1.664062 -4.65625 2.4375 -4.65625 C 3.238281 -4.65625 3.828125 -4.394531 4.203125 -3.875 C 4.503906 -3.476562 4.65625 -2.96875 4.65625 -2.34375 C 4.65625 -2.050781 4.617188 -1.769531 4.546875 -1.5 C 4.441406 -1.09375 4.257812 -0.757812 4 -0.5 Z M 2.5 -0.421875 C 2.625 -0.421875 2.742188 -0.425781 2.859375 -0.4375 C 2.972656 -0.457031 3.066406 -0.492188 3.140625 -0.546875 L 2.65625 -0.9375 L 2.953125 -1.3125 L 3.546875 -0.859375 C 3.734375 -1.066406 3.859375 -1.300781 3.921875 -1.5625 C 3.992188 -1.832031 4.03125 -2.085938 4.03125 -2.328125 C 4.03125 -2.859375 3.890625 -3.285156 3.609375 -3.609375 C 3.335938 -3.941406 2.957031 -4.109375 2.46875 -4.109375 C 1.976562 -4.109375 1.585938 -3.953125 1.296875 -3.640625 C 1.015625 -3.328125 0.875 -2.847656 0.875 -2.203125 C 0.875 -1.660156 1.007812 -1.226562 1.28125 -0.90625 C 1.5625 -0.582031 1.96875 -0.421875 2.5 -0.421875 Z M 2.5 -0.421875 "/>
</g>
<g id="glyph-0-1">
<path d="M 0.96875 -3.296875 L 0.96875 -1.109375 C 0.96875 -0.941406 0.992188 -0.804688 1.046875 -0.703125 C 1.140625 -0.503906 1.320312 -0.40625 1.59375 -0.40625 C 1.976562 -0.40625 2.238281 -0.578125 2.375 -0.921875 C 2.457031 -1.109375 2.5 -1.363281 2.5 -1.6875 L 2.5 -3.296875 L 3.046875 -3.296875 L 3.046875 0 L 2.53125 0 L 2.53125 -0.484375 C 2.457031 -0.359375 2.367188 -0.253906 2.265625 -0.171875 C 2.054688 0.00390625 1.800781 0.09375 1.5 0.09375 C 1.03125 0.09375 0.707031 -0.0625 0.53125 -0.375 C 0.4375 -0.550781 0.390625 -0.78125 0.390625 -1.0625 L 0.390625 -3.296875 Z M 1.71875 -3.375 Z M 1.71875 -3.375 "/>
</g>
<g id="glyph-0-2">
<path d="M 1.78125 -3.375 C 2.019531 -3.375 2.25 -3.316406 2.46875 -3.203125 C 2.6875 -3.097656 2.851562 -2.957031 2.96875 -2.78125 C 3.070312 -2.613281 3.144531 -2.421875 3.1875 -2.203125 C 3.21875 -2.046875 3.234375 -1.800781 3.234375 -1.46875 L 0.8125 -1.46875 C 0.820312 -1.132812 0.898438 -0.863281 1.046875 -0.65625 C 1.203125 -0.457031 1.429688 -0.359375 1.734375 -0.359375 C 2.023438 -0.359375 2.257812 -0.457031 2.4375 -0.65625 C 2.53125 -0.757812 2.597656 -0.882812 2.640625 -1.03125 L 3.1875 -1.03125 C 3.175781 -0.914062 3.128906 -0.78125 3.046875 -0.625 C 2.960938 -0.476562 2.875 -0.359375 2.78125 -0.265625 C 2.601562 -0.0976562 2.390625 0.0078125 2.140625 0.0625 C 2.015625 0.09375 1.863281 0.109375 1.6875 0.109375 C 1.28125 0.109375 0.929688 -0.0351562 0.640625 -0.328125 C 0.359375 -0.628906 0.21875 -1.050781 0.21875 -1.59375 C 0.21875 -2.113281 0.359375 -2.539062 0.640625 -2.875 C 0.929688 -3.207031 1.3125 -3.375 1.78125 -3.375 Z M 2.671875 -1.921875 C 2.640625 -2.160156 2.585938 -2.347656 2.515625 -2.484375 C 2.359375 -2.753906 2.101562 -2.890625 1.75 -2.890625 C 1.488281 -2.890625 1.269531 -2.796875 1.09375 -2.609375 C 0.925781 -2.429688 0.835938 -2.203125 0.828125 -1.921875 Z M 1.734375 -3.375 Z M 1.734375 -3.375 "/>
</g>
<g id="glyph-0-3">
<path d="M 0.421875 -3.296875 L 0.953125 -3.296875 L 0.953125 -2.734375 C 0.992188 -2.835938 1.097656 -2.96875 1.265625 -3.125 C 1.429688 -3.289062 1.625 -3.375 1.84375 -3.375 C 1.851562 -3.375 1.867188 -3.375 1.890625 -3.375 C 1.921875 -3.375 1.96875 -3.367188 2.03125 -3.359375 L 2.03125 -2.78125 C 2 -2.78125 1.96875 -2.78125 1.9375 -2.78125 C 1.90625 -2.789062 1.875 -2.796875 1.84375 -2.796875 C 1.5625 -2.796875 1.347656 -2.703125 1.203125 -2.515625 C 1.054688 -2.335938 0.984375 -2.132812 0.984375 -1.90625 L 0.984375 0 L 0.421875 0 Z M 0.421875 -3.296875 "/>
</g>
<g id="glyph-0-4">
<path d="M 2.46875 -3.296875 L 3.078125 -3.296875 C 3.003906 -3.085938 2.832031 -2.609375 2.5625 -1.859375 C 2.363281 -1.285156 2.195312 -0.820312 2.0625 -0.46875 C 1.738281 0.371094 1.507812 0.890625 1.375 1.078125 C 1.25 1.265625 1.023438 1.359375 0.703125 1.359375 C 0.617188 1.359375 0.554688 1.351562 0.515625 1.34375 C 0.472656 1.332031 0.421875 1.320312 0.359375 1.3125 L 0.359375 0.796875 C 0.460938 0.828125 0.535156 0.84375 0.578125 0.84375 C 0.617188 0.851562 0.65625 0.859375 0.6875 0.859375 C 0.789062 0.859375 0.863281 0.84375 0.90625 0.8125 C 0.957031 0.78125 1 0.738281 1.03125 0.6875 C 1.039062 0.664062 1.078125 0.578125 1.140625 0.421875 C 1.203125 0.273438 1.25 0.164062 1.28125 0.09375 L 0.0625 -3.296875 L 0.6875 -3.296875 L 1.578125 -0.609375 Z M 1.578125 -3.375 Z M 1.578125 -3.375 "/>
</g>
<g id="glyph-0-5">
</g>
<g id="glyph-0-6">
<path d="M 0.546875 -4.53125 L 2.578125 -4.53125 C 2.984375 -4.53125 3.304688 -4.414062 3.546875 -4.1875 C 3.796875 -3.957031 3.921875 -3.640625 3.921875 -3.234375 C 3.921875 -2.878906 3.8125 -2.570312 3.59375 -2.3125 C 3.375 -2.050781 3.035156 -1.921875 2.578125 -1.921875 L 1.15625 -1.921875 L 1.15625 0 L 0.546875 0 Z M 3.296875 -3.234375 C 3.296875 -3.554688 3.175781 -3.78125 2.9375 -3.90625 C 2.800781 -3.96875 2.613281 -4 2.375 -4 L 1.15625 -4 L 1.15625 -2.4375 L 2.375 -2.4375 C 2.644531 -2.4375 2.863281 -2.492188 3.03125 -2.609375 C 3.207031 -2.722656 3.296875 -2.929688 3.296875 -3.234375 Z M 3.296875 -3.234375 "/>
</g>
<g id="glyph-0-7">
<path d="M 0.421875 -4.53125 L 0.984375 -4.53125 L 0.984375 0 L 0.421875 0 Z M 0.421875 -4.53125 "/>
</g>
<g id="glyph-0-8">
<path d="M 0.828125 -0.875 C 0.828125 -0.71875 0.882812 -0.59375 1 -0.5 C 1.125 -0.40625 1.265625 -0.359375 1.421875 -0.359375 C 1.617188 -0.359375 1.804688 -0.40625 1.984375 -0.5 C 2.296875 -0.644531 2.453125 -0.890625 2.453125 -1.234375 L 2.453125 -1.6875 C 2.390625 -1.632812 2.300781 -1.59375 2.1875 -1.5625 C 2.082031 -1.539062 1.976562 -1.523438 1.875 -1.515625 L 1.546875 -1.46875 C 1.335938 -1.4375 1.1875 -1.394531 1.09375 -1.34375 C 0.914062 -1.25 0.828125 -1.09375 0.828125 -0.875 Z M 2.171875 -2 C 2.304688 -2.019531 2.394531 -2.070312 2.4375 -2.15625 C 2.457031 -2.207031 2.46875 -2.28125 2.46875 -2.375 C 2.46875 -2.5625 2.398438 -2.695312 2.265625 -2.78125 C 2.128906 -2.863281 1.9375 -2.90625 1.6875 -2.90625 C 1.394531 -2.90625 1.191406 -2.828125 1.078125 -2.671875 C 1.003906 -2.585938 0.957031 -2.460938 0.9375 -2.296875 L 0.421875 -2.296875 C 0.429688 -2.703125 0.5625 -2.984375 0.8125 -3.140625 C 1.070312 -3.296875 1.367188 -3.375 1.703125 -3.375 C 2.085938 -3.375 2.398438 -3.300781 2.640625 -3.15625 C 2.890625 -3.007812 3.015625 -2.78125 3.015625 -2.46875 L 3.015625 -0.5625 C 3.015625 -0.507812 3.023438 -0.460938 3.046875 -0.421875 C 3.066406 -0.390625 3.113281 -0.375 3.1875 -0.375 C 3.21875 -0.375 3.25 -0.375 3.28125 -0.375 C 3.3125 -0.382812 3.34375 -0.390625 3.375 -0.390625 L 3.375 0.015625 C 3.289062 0.0351562 3.222656 0.0507812 3.171875 0.0625 C 3.128906 0.0703125 3.070312 0.078125 3 0.078125 C 2.800781 0.078125 2.660156 0.0078125 2.578125 -0.125 C 2.535156 -0.195312 2.503906 -0.300781 2.484375 -0.4375 C 2.367188 -0.289062 2.203125 -0.160156 1.984375 -0.046875 C 1.773438 0.0546875 1.546875 0.109375 1.296875 0.109375 C 0.984375 0.109375 0.726562 0.0117188 0.53125 -0.171875 C 0.34375 -0.359375 0.25 -0.585938 0.25 -0.859375 C 0.25 -1.171875 0.34375 -1.410156 0.53125 -1.578125 C 0.726562 -1.742188 0.984375 -1.847656 1.296875 -1.890625 Z M 1.71875 -3.375 Z M 1.71875 -3.375 "/>
</g>
<g id="glyph-0-9">
<path d="M 0.40625 -3.296875 L 0.9375 -3.296875 L 0.9375 -2.828125 C 1.09375 -3.023438 1.253906 -3.164062 1.421875 -3.25 C 1.597656 -3.332031 1.796875 -3.375 2.015625 -3.375 C 2.484375 -3.375 2.800781 -3.210938 2.96875 -2.890625 C 3.050781 -2.703125 3.09375 -2.445312 3.09375 -2.125 L 3.09375 0 L 2.53125 0 L 2.53125 -2.078125 C 2.53125 -2.273438 2.5 -2.4375 2.4375 -2.5625 C 2.34375 -2.769531 2.164062 -2.875 1.90625 -2.875 C 1.769531 -2.875 1.660156 -2.859375 1.578125 -2.828125 C 1.429688 -2.785156 1.300781 -2.695312 1.1875 -2.5625 C 1.09375 -2.457031 1.03125 -2.34375 1 -2.21875 C 0.976562 -2.101562 0.96875 -1.941406 0.96875 -1.734375 L 0.96875 0 L 0.40625 0 Z M 1.703125 -3.375 Z M 1.703125 -3.375 "/>
</g>
<g id="glyph-0-10">
<path d="M 0.40625 -3.28125 L 0.96875 -3.28125 L 0.96875 0 L 0.40625 0 Z M 0.40625 -4.53125 L 0.96875 -4.53125 L 0.96875 -3.90625 L 0.40625 -3.90625 Z M 0.40625 -4.53125 "/>
</g>
<g id="glyph-0-11">
<path d="M 1.578125 -3.359375 C 1.828125 -3.359375 2.050781 -3.296875 2.25 -3.171875 C 2.351562 -3.097656 2.460938 -2.992188 2.578125 -2.859375 L 2.578125 -3.265625 L 3.078125 -3.265625 L 3.078125 -0.265625 C 3.078125 0.148438 3.015625 0.476562 2.890625 0.71875 C 2.660156 1.164062 2.226562 1.390625 1.59375 1.390625 C 1.238281 1.390625 0.9375 1.3125 0.6875 1.15625 C 0.445312 1 0.316406 0.75 0.296875 0.40625 L 0.859375 0.40625 C 0.878906 0.550781 0.929688 0.664062 1.015625 0.75 C 1.140625 0.875 1.335938 0.9375 1.609375 0.9375 C 2.035156 0.9375 2.3125 0.785156 2.4375 0.484375 C 2.519531 0.304688 2.554688 -0.00390625 2.546875 -0.453125 C 2.429688 -0.285156 2.296875 -0.160156 2.140625 -0.078125 C 1.992188 0.00390625 1.789062 0.046875 1.53125 0.046875 C 1.175781 0.046875 0.863281 -0.078125 0.59375 -0.328125 C 0.320312 -0.585938 0.1875 -1.007812 0.1875 -1.59375 C 0.1875 -2.144531 0.320312 -2.578125 0.59375 -2.890625 C 0.863281 -3.203125 1.191406 -3.359375 1.578125 -3.359375 Z M 2.578125 -1.671875 C 2.578125 -2.078125 2.488281 -2.378906 2.3125 -2.578125 C 2.144531 -2.773438 1.929688 -2.875 1.671875 -2.875 C 1.285156 -2.875 1.019531 -2.691406 0.875 -2.328125 C 0.800781 -2.128906 0.765625 -1.867188 0.765625 -1.546875 C 0.765625 -1.179688 0.835938 -0.898438 0.984375 -0.703125 C 1.140625 -0.503906 1.34375 -0.40625 1.59375 -0.40625 C 1.988281 -0.40625 2.269531 -0.585938 2.4375 -0.953125 C 2.53125 -1.148438 2.578125 -1.390625 2.578125 -1.671875 Z M 1.640625 -3.375 Z M 1.640625 -3.375 "/>
</g>
<g id="glyph-0-12">
<path d="M 2.4375 -4.65625 C 3.238281 -4.65625 3.828125 -4.394531 4.203125 -3.875 C 4.503906 -3.476562 4.65625 -2.96875 4.65625 -2.34375 C 4.65625 -1.664062 4.484375 -1.101562 4.140625 -0.65625 C 3.742188 -0.132812 3.171875 0.125 2.421875 0.125 C 1.722656 0.125 1.175781 -0.101562 0.78125 -0.5625 C 0.425781 -1 0.25 -1.554688 0.25 -2.234375 C 0.25 -2.847656 0.398438 -3.375 0.703125 -3.8125 C 1.085938 -4.375 1.664062 -4.65625 2.4375 -4.65625 Z M 2.5 -0.421875 C 3.039062 -0.421875 3.429688 -0.613281 3.671875 -1 C 3.910156 -1.382812 4.03125 -1.828125 4.03125 -2.328125 C 4.03125 -2.859375 3.890625 -3.285156 3.609375 -3.609375 C 3.335938 -3.941406 2.957031 -4.109375 2.46875 -4.109375 C 2 -4.109375 1.613281 -3.945312 1.3125 -3.625 C 1.019531 -3.300781 0.875 -2.828125 0.875 -2.203125 C 0.875 -1.703125 1 -1.28125 1.25 -0.9375 C 1.507812 -0.59375 1.925781 -0.421875 2.5 -0.421875 Z M 2.453125 -4.65625 Z M 2.453125 -4.65625 "/>
</g>
<g id="glyph-0-13">
<path d="M 1.796875 -0.375 C 2.054688 -0.375 2.269531 -0.476562 2.4375 -0.6875 C 2.613281 -0.90625 2.703125 -1.234375 2.703125 -1.671875 C 2.703125 -1.929688 2.664062 -2.15625 2.59375 -2.34375 C 2.445312 -2.707031 2.179688 -2.890625 1.796875 -2.890625 C 1.410156 -2.890625 1.148438 -2.695312 1.015625 -2.3125 C 0.929688 -2.113281 0.890625 -1.851562 0.890625 -1.53125 C 0.890625 -1.28125 0.929688 -1.066406 1.015625 -0.890625 C 1.160156 -0.546875 1.421875 -0.375 1.796875 -0.375 Z M 0.359375 -3.28125 L 0.90625 -3.28125 L 0.90625 -2.84375 C 1.007812 -3 1.128906 -3.117188 1.265625 -3.203125 C 1.453125 -3.316406 1.671875 -3.375 1.921875 -3.375 C 2.296875 -3.375 2.613281 -3.226562 2.875 -2.9375 C 3.132812 -2.65625 3.265625 -2.25 3.265625 -1.71875 C 3.265625 -1 3.078125 -0.488281 2.703125 -0.1875 C 2.460938 0.0078125 2.1875 0.109375 1.875 0.109375 C 1.625 0.109375 1.414062 0.0546875 1.25 -0.046875 C 1.144531 -0.109375 1.035156 -0.21875 0.921875 -0.375 L 0.921875 1.3125 L 0.359375 1.3125 Z M 0.359375 -3.28125 "/>
</g>
<g id="glyph-0-14">
<path d="M 0.515625 -4.21875 L 1.078125 -4.21875 L 1.078125 -3.296875 L 1.609375 -3.296875 L 1.609375 -2.84375 L 1.078125 -2.84375 L 1.078125 -0.6875 C 1.078125 -0.570312 1.117188 -0.5 1.203125 -0.46875 C 1.242188 -0.4375 1.3125 -0.421875 1.40625 -0.421875 C 1.4375 -0.421875 1.46875 -0.421875 1.5 -0.421875 C 1.53125 -0.429688 1.566406 -0.4375 1.609375 -0.4375 L 1.609375 0 C 1.546875 0.0195312 1.476562 0.03125 1.40625 0.03125 C 1.332031 0.0390625 1.257812 0.046875 1.1875 0.046875 C 0.925781 0.046875 0.75 -0.015625 0.65625 -0.140625 C 0.5625 -0.273438 0.515625 -0.445312 0.515625 -0.65625 L 0.515625 -2.84375 L 0.078125 -2.84375 L 0.078125 -3.296875 L 0.515625 -3.296875 Z M 0.515625 -4.21875 "/>
</g>
<g id="glyph-0-15">
<path d="M 1.71875 -0.359375 C 2.082031 -0.359375 2.332031 -0.492188 2.46875 -0.765625 C 2.601562 -1.046875 2.671875 -1.359375 2.671875 -1.703125 C 2.671875 -2.015625 2.625 -2.265625 2.53125 -2.453125 C 2.375 -2.753906 2.101562 -2.90625 1.71875 -2.90625 C 1.382812 -2.90625 1.140625 -2.773438 0.984375 -2.515625 C 0.828125 -2.265625 0.75 -1.957031 0.75 -1.59375 C 0.75 -1.238281 0.828125 -0.941406 0.984375 -0.703125 C 1.140625 -0.472656 1.382812 -0.359375 1.71875 -0.359375 Z M 1.734375 -3.390625 C 2.160156 -3.390625 2.519531 -3.25 2.8125 -2.96875 C 3.113281 -2.6875 3.265625 -2.269531 3.265625 -1.71875 C 3.265625 -1.1875 3.132812 -0.742188 2.875 -0.390625 C 2.613281 -0.046875 2.210938 0.125 1.671875 0.125 C 1.210938 0.125 0.847656 -0.0234375 0.578125 -0.328125 C 0.316406 -0.640625 0.1875 -1.054688 0.1875 -1.578125 C 0.1875 -2.128906 0.328125 -2.566406 0.609375 -2.890625 C 0.890625 -3.222656 1.265625 -3.390625 1.734375 -3.390625 Z M 1.71875 -3.375 Z M 1.71875 -3.375 "/>
</g>
<g id="glyph-0-16">
<path d="M 0.546875 -4.53125 L 3.84375 -4.53125 L 3.84375 -3.96875 L 1.140625 -3.96875 L 1.140625 -2.59375 L 3.640625 -2.59375 L 3.640625 -2.078125 L 1.140625 -2.078125 L 1.140625 -0.546875 L 3.890625 -0.546875 L 3.890625 0 L 0.546875 0 Z M 2.21875 -4.53125 Z M 2.21875 -4.53125 "/>
</g>
<g id="glyph-0-17">
<path d="M 0.09375 -3.296875 L 0.8125 -3.296875 L 1.5625 -2.140625 L 2.34375 -3.296875 L 3.015625 -3.28125 L 1.90625 -1.6875 L 3.0625 0 L 2.359375 0 L 1.53125 -1.234375 L 0.734375 0 L 0.03125 0 L 1.203125 -1.6875 Z M 0.09375 -3.296875 "/>
</g>
<g id="glyph-0-18">
<path d="M 1.6875 -3.390625 C 2.050781 -3.390625 2.347656 -3.300781 2.578125 -3.125 C 2.816406 -2.945312 2.960938 -2.632812 3.015625 -2.1875 L 2.46875 -2.1875 C 2.4375 -2.394531 2.359375 -2.566406 2.234375 -2.703125 C 2.117188 -2.835938 1.9375 -2.90625 1.6875 -2.90625 C 1.332031 -2.90625 1.078125 -2.726562 0.921875 -2.375 C 0.828125 -2.15625 0.78125 -1.878906 0.78125 -1.546875 C 0.78125 -1.222656 0.847656 -0.945312 0.984375 -0.71875 C 1.117188 -0.488281 1.335938 -0.375 1.640625 -0.375 C 1.867188 -0.375 2.050781 -0.441406 2.1875 -0.578125 C 2.320312 -0.722656 2.414062 -0.921875 2.46875 -1.171875 L 3.015625 -1.171875 C 2.953125 -0.734375 2.796875 -0.410156 2.546875 -0.203125 C 2.296875 -0.00390625 1.976562 0.09375 1.59375 0.09375 C 1.164062 0.09375 0.820312 -0.0625 0.5625 -0.375 C 0.3125 -0.6875 0.1875 -1.082031 0.1875 -1.5625 C 0.1875 -2.132812 0.328125 -2.582031 0.609375 -2.90625 C 0.890625 -3.226562 1.25 -3.390625 1.6875 -3.390625 Z M 1.59375 -3.375 Z M 1.59375 -3.375 "/>
</g>
<g id="glyph-0-19">
<path d="M 2.8125 -1.859375 L 2.125 -3.859375 L 1.390625 -1.859375 Z M 1.796875 -4.53125 L 2.484375 -4.53125 L 4.140625 0 L 3.46875 0 L 3 -1.359375 L 1.21875 -1.359375 L 0.71875 0 L 0.09375 0 Z M 1.796875 -4.53125 "/>
</g>
<g id="glyph-0-20">
<path d="M 0.734375 -1.03125 C 0.753906 -0.851562 0.800781 -0.710938 0.875 -0.609375 C 1.007812 -0.429688 1.253906 -0.34375 1.609375 -0.34375 C 1.804688 -0.34375 1.984375 -0.382812 2.140625 -0.46875 C 2.296875 -0.5625 2.375 -0.703125 2.375 -0.890625 C 2.375 -1.035156 2.3125 -1.144531 2.1875 -1.21875 C 2.113281 -1.257812 1.957031 -1.3125 1.71875 -1.375 L 1.28125 -1.484375 C 1 -1.554688 0.789062 -1.632812 0.65625 -1.71875 C 0.414062 -1.863281 0.296875 -2.070312 0.296875 -2.34375 C 0.296875 -2.65625 0.40625 -2.90625 0.625 -3.09375 C 0.851562 -3.289062 1.160156 -3.390625 1.546875 -3.390625 C 2.035156 -3.390625 2.390625 -3.242188 2.609375 -2.953125 C 2.753906 -2.765625 2.820312 -2.566406 2.8125 -2.359375 L 2.296875 -2.359375 C 2.285156 -2.484375 2.238281 -2.59375 2.15625 -2.6875 C 2.03125 -2.832031 1.8125 -2.90625 1.5 -2.90625 C 1.289062 -2.90625 1.128906 -2.863281 1.015625 -2.78125 C 0.910156 -2.707031 0.859375 -2.601562 0.859375 -2.46875 C 0.859375 -2.332031 0.929688 -2.21875 1.078125 -2.125 C 1.160156 -2.070312 1.28125 -2.03125 1.4375 -2 L 1.796875 -1.90625 C 2.203125 -1.8125 2.472656 -1.71875 2.609375 -1.625 C 2.816406 -1.476562 2.921875 -1.253906 2.921875 -0.953125 C 2.921875 -0.660156 2.8125 -0.40625 2.59375 -0.1875 C 2.375 0.0195312 2.035156 0.125 1.578125 0.125 C 1.085938 0.125 0.738281 0.0117188 0.53125 -0.203125 C 0.320312 -0.429688 0.210938 -0.707031 0.203125 -1.03125 Z M 1.5625 -3.375 Z M 1.5625 -3.375 "/>
</g>
<g id="glyph-0-21">
<path d="M 0.46875 -4.53125 L 1.34375 -4.53125 L 2.640625 -0.703125 L 3.9375 -4.53125 L 4.8125 -4.53125 L 4.8125 0 L 4.21875 0 L 4.21875 -2.671875 C 4.21875 -2.765625 4.21875 -2.914062 4.21875 -3.125 C 4.226562 -3.34375 4.234375 -3.570312 4.234375 -3.8125 L 2.9375 0 L 2.34375 0 L 1.03125 -3.8125 L 1.03125 -3.6875 C 1.03125 -3.570312 1.03125 -3.398438 1.03125 -3.171875 C 1.039062 -2.941406 1.046875 -2.773438 1.046875 -2.671875 L 1.046875 0 L 0.46875 0 Z M 0.46875 -4.53125 "/>
</g>
<g id="glyph-0-22">
<path d="M 0.40625 -4.546875 L 0.96875 -4.546875 L 0.96875 -2.859375 C 1.09375 -3.023438 1.207031 -3.140625 1.3125 -3.203125 C 1.488281 -3.316406 1.710938 -3.375 1.984375 -3.375 C 2.460938 -3.375 2.785156 -3.207031 2.953125 -2.875 C 3.046875 -2.695312 3.09375 -2.445312 3.09375 -2.125 L 3.09375 0 L 2.53125 0 L 2.53125 -2.078125 C 2.53125 -2.316406 2.5 -2.492188 2.4375 -2.609375 C 2.332031 -2.796875 2.144531 -2.890625 1.875 -2.890625 C 1.632812 -2.890625 1.421875 -2.804688 1.234375 -2.640625 C 1.054688 -2.484375 0.96875 -2.1875 0.96875 -1.75 L 0.96875 0 L 0.40625 0 Z M 0.40625 -4.546875 "/>
</g>
<g id="glyph-0-23">
<path d="M 0.765625 -1.609375 C 0.765625 -1.253906 0.835938 -0.957031 0.984375 -0.71875 C 1.128906 -0.476562 1.367188 -0.359375 1.703125 -0.359375 C 1.960938 -0.359375 2.175781 -0.46875 2.34375 -0.6875 C 2.507812 -0.914062 2.59375 -1.238281 2.59375 -1.65625 C 2.59375 -2.070312 2.503906 -2.378906 2.328125 -2.578125 C 2.160156 -2.773438 1.953125 -2.875 1.703125 -2.875 C 1.421875 -2.875 1.191406 -2.765625 1.015625 -2.546875 C 0.847656 -2.335938 0.765625 -2.023438 0.765625 -1.609375 Z M 1.59375 -3.359375 C 1.84375 -3.359375 2.054688 -3.304688 2.234375 -3.203125 C 2.328125 -3.140625 2.4375 -3.03125 2.5625 -2.875 L 2.5625 -4.546875 L 3.09375 -4.546875 L 3.09375 0 L 2.59375 0 L 2.59375 -0.453125 C 2.46875 -0.253906 2.316406 -0.109375 2.140625 -0.015625 C 1.960938 0.0664062 1.757812 0.109375 1.53125 0.109375 C 1.164062 0.109375 0.847656 -0.0390625 0.578125 -0.34375 C 0.304688 -0.65625 0.171875 -1.066406 0.171875 -1.578125 C 0.171875 -2.054688 0.289062 -2.472656 0.53125 -2.828125 C 0.78125 -3.179688 1.132812 -3.359375 1.59375 -3.359375 Z M 1.59375 -3.359375 "/>
</g>
<g id="glyph-0-24">
<path d="M 2.1875 -2.609375 C 2.445312 -2.609375 2.644531 -2.644531 2.78125 -2.71875 C 3.007812 -2.832031 3.125 -3.035156 3.125 -3.328125 C 3.125 -3.628906 3.003906 -3.832031 2.765625 -3.9375 C 2.628906 -3.988281 2.425781 -4.015625 2.15625 -4.015625 L 1.0625 -4.015625 L 1.0625 -2.609375 Z M 2.390625 -0.53125 C 2.765625 -0.53125 3.03125 -0.632812 3.1875 -0.84375 C 3.289062 -0.988281 3.34375 -1.15625 3.34375 -1.34375 C 3.34375 -1.675781 3.195312 -1.898438 2.90625 -2.015625 C 2.75 -2.085938 2.539062 -2.125 2.28125 -2.125 L 1.0625 -2.125 L 1.0625 -0.53125 Z M 0.46875 -4.53125 L 2.40625 -4.53125 C 2.9375 -4.53125 3.316406 -4.367188 3.546875 -4.046875 C 3.671875 -3.859375 3.734375 -3.644531 3.734375 -3.40625 C 3.734375 -3.125 3.65625 -2.890625 3.5 -2.703125 C 3.414062 -2.609375 3.289062 -2.519531 3.125 -2.4375 C 3.363281 -2.351562 3.539062 -2.253906 3.65625 -2.140625 C 3.851562 -1.941406 3.953125 -1.671875 3.953125 -1.328125 C 3.953125 -1.035156 3.863281 -0.769531 3.6875 -0.53125 C 3.40625 -0.175781 2.96875 0 2.375 0 L 0.46875 0 Z M 0.46875 -4.53125 "/>
</g>
<g id="glyph-0-25">
<path d="M 0.546875 -3.796875 C 0.554688 -4.035156 0.597656 -4.207031 0.671875 -4.3125 C 0.796875 -4.5 1.046875 -4.59375 1.421875 -4.59375 C 1.453125 -4.59375 1.484375 -4.59375 1.515625 -4.59375 C 1.554688 -4.59375 1.601562 -4.585938 1.65625 -4.578125 L 1.65625 -4.078125 C 1.59375 -4.078125 1.546875 -4.078125 1.515625 -4.078125 C 1.492188 -4.078125 1.472656 -4.078125 1.453125 -4.078125 C 1.285156 -4.078125 1.179688 -4.035156 1.140625 -3.953125 C 1.109375 -3.867188 1.09375 -3.644531 1.09375 -3.28125 L 1.65625 -3.28125 L 1.65625 -2.84375 L 1.09375 -2.84375 L 1.09375 0 L 0.546875 0 L 0.546875 -2.84375 L 0.09375 -2.84375 L 0.09375 -3.28125 L 0.546875 -3.28125 Z M 0.546875 -3.796875 "/>
</g>
<g id="glyph-0-26">
<path d="M 2.21875 -0.53125 C 2.425781 -0.53125 2.597656 -0.550781 2.734375 -0.59375 C 2.972656 -0.664062 3.164062 -0.816406 3.3125 -1.046875 C 3.4375 -1.234375 3.523438 -1.46875 3.578125 -1.75 C 3.609375 -1.925781 3.625 -2.085938 3.625 -2.234375 C 3.625 -2.785156 3.507812 -3.21875 3.28125 -3.53125 C 3.0625 -3.84375 2.707031 -4 2.21875 -4 L 1.125 -4 L 1.125 -0.53125 Z M 0.515625 -4.53125 L 2.34375 -4.53125 C 2.96875 -4.53125 3.453125 -4.304688 3.796875 -3.859375 C 4.097656 -3.460938 4.25 -2.953125 4.25 -2.328125 C 4.25 -1.847656 4.160156 -1.414062 3.984375 -1.03125 C 3.660156 -0.34375 3.113281 0 2.34375 0 L 0.515625 0 Z M 0.515625 -4.53125 "/>
</g>
<g id="glyph-0-27">
<path d="M 0.390625 -4.53125 L 0.921875 -4.53125 L 0.921875 -1.90625 L 2.359375 -3.296875 L 3.0625 -3.296875 L 1.796875 -2.0625 L 3.125 0 L 2.421875 0 L 1.390625 -1.671875 L 0.921875 -1.234375 L 0.921875 0 L 0.390625 0 Z M 0.390625 -4.53125 "/>
</g>
</g>
<clipPath id="clip-0">
<path clip-rule="nonzero" d="M 0 0 L 144.960938 0 L 144.960938 203.765625 L 0 203.765625 Z M 0 0 "/>
</clipPath>
</defs>
<g clip-path="url(#clip-0)">
<rect x="-14.495999" y="-20.4" width="173.951989" height="244.8" fill="rgb(100%, 100%, 100%)" fill-opacity="1"/>
</g>
<path fill-rule="nonzero" fill="rgb(100%, 100%, 100%)" fill-opacity="1" stroke-width="1" stroke-linecap="butt" stroke-linejoin="miter" stroke="rgb(0%, 0%, 0%)" stroke-opacity="1" stroke-miterlimit="4" d="M -10.003427 180.002079 L 189.998673 180.002079 L 189.998673 460.000565 L -10.003427 460.000565 Z M -10.003427 180.002079 " transform="matrix(0.526244, 0, 0, 0.526244, 25.291592, -66.447756)"/>
<path fill-rule="nonzero" fill="rgb(100%, 100%, 100%)" fill-opacity="1" stroke-width="1" stroke-linecap="butt" stroke-linejoin="miter" stroke="rgb(0%, 0%, 0%)" stroke-opacity="1" stroke-miterlimit="4" d="M 10.001236 199.99932 L 170.001432 199.99932 L 170.001432 240.001224 L 10.001236 240.001224 Z M 10.001236 199.99932 " transform="matrix(0.526244, 0, 0, 0.526244, 25.291592, -66.447756)"/>
<g fill="rgb(0%, 0%, 0%)" fill-opacity="1">
<use xlink:href="#glyph-0-0" x="50.62533" y="51.167883"/>
<use xlink:href="#glyph-0-1" x="55.537287" y="51.167883"/>
<use xlink:href="#glyph-0-2" x="59.049352" y="51.167883"/>
<use xlink:href="#glyph-0-3" x="62.561418" y="51.167883"/>
<use xlink:href="#glyph-0-4" x="64.66434" y="51.167883"/>
<use xlink:href="#glyph-0-5" x="67.821807" y="51.167883"/>
<use xlink:href="#glyph-0-6" x="69.576298" y="51.167883"/>
<use xlink:href="#glyph-0-7" x="73.788309" y="51.167883"/>
<use xlink:href="#glyph-0-8" x="75.191285" y="51.167883"/>
<use xlink:href="#glyph-0-9" x="78.70335" y="51.167883"/>
<use xlink:href="#glyph-0-9" x="82.215415" y="51.167883"/>
<use xlink:href="#glyph-0-10" x="85.72748" y="51.167883"/>
<use xlink:href="#glyph-0-9" x="87.130456" y="51.167883"/>
<use xlink:href="#glyph-0-11" x="90.642522" y="51.167883"/>
</g>
<path fill-rule="nonzero" fill="rgb(100%, 100%, 100%)" fill-opacity="1" stroke-width="1" stroke-linecap="butt" stroke-linejoin="miter" stroke="rgb(0%, 0%, 0%)" stroke-opacity="1" stroke-miterlimit="4" d="M 10.001236 249.999845 L 170.001432 249.999845 L 170.001432 290.001749 L 10.001236 290.001749 Z M 10.001236 249.999845 " transform="matrix(0.526244, 0, 0, 0.526244, 25.291592, -66.447756)"/>
<g fill="rgb(0%, 0%, 0%)" fill-opacity="1">
<use xlink:href="#glyph-0-12" x="45.181988" y="77.480106"/>
<use xlink:href="#glyph-0-13" x="50.093946" y="77.480106"/>
<use xlink:href="#glyph-0-2" x="53.606011" y="77.480106"/>
<use xlink:href="#glyph-0-3" x="57.118076" y="77.480106"/>
<use xlink:href="#glyph-0-8" x="59.220999" y="77.480106"/>
<use xlink:href="#glyph-0-14" x="62.733064" y="77.480106"/>
<use xlink:href="#glyph-0-15" x="64.487555" y="77.480106"/>
<use xlink:href="#glyph-0-3" x="67.99962" y="77.480106"/>
<use xlink:href="#glyph-0-5" x="70.102542" y="77.480106"/>
<use xlink:href="#glyph-0-16" x="71.857033" y="77.480106"/>
<use xlink:href="#glyph-0-17" x="76.069044" y="77.480106"/>
<use xlink:href="#glyph-0-2" x="79.226511" y="77.480106"/>
<use xlink:href="#glyph-0-18" x="82.738576" y="77.480106"/>
<use xlink:href="#glyph-0-1" x="85.896043" y="77.480106"/>
<use xlink:href="#glyph-0-14" x="89.408108" y="77.480106"/>
<use xlink:href="#glyph-0-10" x="91.162599" y="77.480106"/>
<use xlink:href="#glyph-0-15" x="92.565575" y="77.480106"/>
<use xlink:href="#glyph-0-9" x="96.07764" y="77.480106"/>
</g>
<path fill-rule="nonzero" fill="rgb(100%, 100%, 100%)" fill-opacity="1" stroke-width="1" stroke-linecap="butt" stroke-linejoin="miter" stroke="rgb(0%, 0%, 0%)" stroke-opacity="1" stroke-miterlimit="4" d="M 10.001236 300.00037 L 170.001432 300.00037 L 170.001432 340.002275 L 10.001236 340.002275 Z M 10.001236 300.00037 " transform="matrix(0.526244, 0, 0, 0.526244, 25.291592, -66.447756)"/>
<g fill="rgb(0%, 0%, 0%)" fill-opacity="1">
<use xlink:href="#glyph-0-19" x="49.21927" y="103.79233"/>
<use xlink:href="#glyph-0-18" x="53.431282" y="103.79233"/>
<use xlink:href="#glyph-0-18" x="56.588748" y="103.79233"/>
<use xlink:href="#glyph-0-2" x="59.746215" y="103.79233"/>
<use xlink:href="#glyph-0-20" x="63.25828" y="103.79233"/>
<use xlink:href="#glyph-0-20" x="66.415747" y="103.79233"/>
<use xlink:href="#glyph-0-5" x="69.573214" y="103.79233"/>
<use xlink:href="#glyph-0-21" x="71.327705" y="103.79233"/>
<use xlink:href="#glyph-0-2" x="76.588094" y="103.79233"/>
<use xlink:href="#glyph-0-14" x="80.100159" y="103.79233"/>
<use xlink:href="#glyph-0-22" x="81.85465" y="103.79233"/>
<use xlink:href="#glyph-0-15" x="85.366715" y="103.79233"/>
<use xlink:href="#glyph-0-23" x="88.87878" y="103.79233"/>
<use xlink:href="#glyph-0-20" x="92.390846" y="103.79233"/>
</g>
<path fill-rule="nonzero" fill="rgb(100%, 100%, 100%)" fill-opacity="1" stroke-width="1" stroke-linecap="butt" stroke-linejoin="miter" stroke="rgb(0%, 0%, 0%)" stroke-opacity="1" stroke-miterlimit="4" d="M 10.001236 350.000895 L 170.001432 350.000895 L 170.001432 390.0028 L 10.001236 390.0028 Z M 10.001236 350.000895 " transform="matrix(0.526244, 0, 0, 0.526244, 25.291592, -66.447756)"/>
<g fill="rgb(0%, 0%, 0%)" fill-opacity="1">
<use xlink:href="#glyph-0-24" x="43.479916" y="130.104554"/>
<use xlink:href="#glyph-0-1" x="47.691928" y="130.104554"/>
<use xlink:href="#glyph-0-25" x="51.203993" y="130.104554"/>
</g>
<g fill="rgb(0%, 0%, 0%)" fill-opacity="1">
<use xlink:href="#glyph-0-25" x="52.847479" y="130.104554"/>
<use xlink:href="#glyph-0-2" x="54.60197" y="130.104554"/>
<use xlink:href="#glyph-0-3" x="58.114035" y="130.104554"/>
<use xlink:href="#glyph-0-5" x="60.216957" y="130.104554"/>
<use xlink:href="#glyph-0-6" x="61.971448" y="130.104554"/>
<use xlink:href="#glyph-0-15" x="66.18346" y="130.104554"/>
<use xlink:href="#glyph-0-15" x="69.695525" y="130.104554"/>
<use xlink:href="#glyph-0-7" x="73.20759" y="130.104554"/>
<use xlink:href="#glyph-0-5" x="74.610566" y="130.104554"/>
<use xlink:href="#glyph-0-21" x="76.365057" y="130.104554"/>
<use xlink:href="#glyph-0-8" x="81.625446" y="130.104554"/>
<use xlink:href="#glyph-0-9" x="85.137511" y="130.104554"/>
<use xlink:href="#glyph-0-8" x="88.649576" y="130.104554"/>
<use xlink:href="#glyph-0-11" x="92.161641" y="130.104554"/>
<use xlink:href="#glyph-0-2" x="95.673706" y="130.104554"/>
<use xlink:href="#glyph-0-3" x="99.185772" y="130.104554"/>
</g>
<path fill-rule="nonzero" fill="rgb(100%, 100%, 100%)" fill-opacity="1" stroke-width="1" stroke-linecap="butt" stroke-linejoin="miter" stroke="rgb(0%, 0%, 0%)" stroke-opacity="1" stroke-miterlimit="4" d="M 10.001236 400.00142 L 170.001432 400.00142 L 170.001432 440.003325 L 10.001236 440.003325 Z M 10.001236 400.00142 " transform="matrix(0.526244, 0, 0, 0.526244, 25.291592, -66.447756)"/>
<g fill="rgb(0%, 0%, 0%)" fill-opacity="1">
<use xlink:href="#glyph-0-26" x="52.911204" y="156.416777"/>
<use xlink:href="#glyph-0-10" x="57.471647" y="156.416777"/>
<use xlink:href="#glyph-0-20" x="58.874623" y="156.416777"/>
<use xlink:href="#glyph-0-27" x="62.03209" y="156.416777"/>
<use xlink:href="#glyph-0-5" x="65.189557" y="156.416777"/>
<use xlink:href="#glyph-0-21" x="66.944047" y="156.416777"/>
<use xlink:href="#glyph-0-8" x="72.204437" y="156.416777"/>
<use xlink:href="#glyph-0-9" x="75.716502" y="156.416777"/>
<use xlink:href="#glyph-0-8" x="79.228567" y="156.416777"/>
<use xlink:href="#glyph-0-11" x="82.740632" y="156.416777"/>
<use xlink:href="#glyph-0-2" x="86.252697" y="156.416777"/>
<use xlink:href="#glyph-0-3" x="89.764762" y="156.416777"/>
</g>
</svg>
